<svg enable-background="new 0 0 256 256" height="256" viewBox="0 0 256 256" width="256" xmlns="http://www.w3.org/2000/svg" xmlns:xlink="http://www.w3.org/1999/xlink"><linearGradient id="a"><stop offset="0" stop-color="#da1c5c"/><stop offset="1" stop-color="#9e1f63"/></linearGradient><linearGradient id="b" gradientUnits="userSpaceOnUse" x1="132.5938" x2="72.5123" xlink:href="#a" y1="89.5688" y2="133.3239"/><linearGradient id="c" gradientUnits="userSpaceOnUse" x1="-9.7256" x2="119.6209" y1="144.7676" y2="207.3987"><stop offset="0" stop-color="#ee4168"/><stop offset="1" stop-color="#9e1f63"/></linearGradient><linearGradient id="d" gradientUnits="userSpaceOnUse" x1="188.5361" x2="148.5269" xlink:href="#a" y1="69.229" y2="247.2404"/><path d="m236.022 93.398-119.155-68.791-32.816-18.949c-12.506-7.219-27.442-7.219-39.949 0-12.512 7.225-19.977 20.161-19.977 34.605v175.475c0 14.444 7.465 27.38 19.978 34.604 6.253 3.606 13.112 5.413 19.977 5.413 6.859 0 13.719-1.807 19.972-5.413l26.265-15.165 36.165-20.88 89.541-51.695c12.512-7.225 19.977-20.161 19.977-34.604 0-14.438-7.465-27.374-19.978-34.6zm-16.004 41.482-95.771 55.29-12.758 7.368-43.443 25.082c-3.583 2.068-6.745.687-7.939 0-1.194-.691-3.972-2.743-3.972-6.882v-175.475c0-4.144 2.778-6.19 3.972-6.882.726-.417 2.178-1.092 4.013-1.092 1.183 0 2.521.28 3.927 1.092l47.695 27.534 104.276 60.207c3.584 2.069 3.973 5.499 3.973 6.876-.001 1.383-.389 4.813-3.973 6.882z" fill="url(#b)"/><path d="m146.481 214.298-62.43 36.045c-6.253 3.606-13.113 5.413-19.972 5.413-6.865 0-13.724-1.807-19.977-5.413-12.512-7.225-19.978-20.16-19.978-34.604v-134.213l32.01 34.736v99.476c0 4.139 2.778 6.19 3.972 6.882 1.195.687 4.356 2.068 7.939 0l56.2-32.45z" fill="url(#c)"/><path d="m256 127.998c0 14.444-7.465 27.379-19.978 34.605l-89.541 51.695-36.165 20.88 1.172-37.64 12.758-7.368 95.771-55.29c3.584-2.069 3.973-5.499 3.973-6.882 0-1.377-.389-4.807-3.973-6.876l-104.276-60.207 1.125-36.308 119.156 68.792c12.513 7.225 19.978 20.161 19.978 34.599z" fill="url(#d)"/></svg>