<svg enable-background="new -64 128 256 256" height="256" viewBox="-64 128 256 256" width="256"
     xmlns="http://www.w3.org/2000/svg">
    <path d="m-58.667 229.333h245.335v149.335h-245.335z" fill="#9fdbad"/>
    <path d="m176 234.667c2.945 0 5.332 2.388 5.332 5.333v128c0 2.945-2.387 5.332-5.332 5.332h-224c-2.945 0-5.333-2.387-5.333-5.332v-128c0-2.945 2.388-5.333 5.333-5.333zm0-10.667h-224c-8.837 0-16 7.163-16 16v128c0 8.836 7.163 16 16 16h224c8.836 0 16-7.164 16-16v-128c0-8.837-7.164-16-16-16z"
          fill="#5c2d51"/>
    <path d="m-47.253 229.76c-1.809-.013-3.383-1.237-3.841-2.986l-7.573-28.373c-.568-2.135.701-4.326 2.836-4.896.015-.004.029-.008.044-.012l229.707-60.16h1.014c1.809.014 3.383 1.238 3.84 2.987l7.414 28.373c.568 2.135-.701 4.326-2.836 4.896-.016.004-.031.008-.045.011l-229.547 60.053z"
          fill="#fff"/>
    <path d="m173.973 138.986 6.773 25.813-227.039 59.201-6.721-25.653zm.961-10.986c-.793.007-1.582.114-2.348.32l-229.6 60.053c-4.971 1.306-7.951 6.384-6.666 11.36l7.413 28.373c1.353 4.928 6.416 7.853 11.36 6.561l229.652-59.947c4.988-1.302 7.977-6.4 6.674-11.388-.002-.009-.006-.017-.006-.025l-7.413-28.321c-1.072-4.126-4.805-7.001-9.066-6.986z"
          fill="#5c2d51"/>
    <path d="m-19.627 184.106 19.733-5.173 2.294 37.973-19.733 5.174z" fill="#f05071"/>
    <path d="m-4.8 185.707 1.6 27.146-9.227 2.399-1.6-27.146zm9.866-13.601-30.24 7.947 2.881 48.853 30.239-7.893-2.88-48.854z"
          fill="#5c2d51"/>
    <path d="m28.48 171.521 19.732-5.174 2.24 38.026-19.733 5.12z" fill="#f05071"/>
    <path d="m43.253 173.174 1.601 27.146-9.174 2.347-1.6-27.146 9.227-2.4m10.026-13.548-30.453 7.894 2.88 48.854 30.24-7.894z"
          fill="#5c2d51"/>
    <path d="m76.533 158.934 19.732-5.174 2.293 38.027-19.785 5.173z" fill="#f05071"/>
    <path d="m91.359 160.587 1.602 27.146-9.227 2.4-1.602-27.147zm9.973-13.601-30.346 7.681 2.881 48.853 30.238-7.893z"
          fill="#5c2d51"/>
    <path d="m124.641 146.347 19.68-5.12 2.293 37.974-19.734 5.173z" fill="#f05071"/>
    <path d="m139.414 148 1.6 27.146-9.227 2.4-1.6-27.146zm9.918-13.6-30.293 7.893 2.881 48.854 30.24-7.894z"
          fill="#5c2d51"/>
    <path d="m43.253 338.508c-5.891 0-10.666-4.777-10.666-10.668v-47.467c0-5.891 4.775-10.666 10.666-10.666 1.874.004 3.713.5 5.334 1.439l41.493 23.732c5.154 2.854 7.021 9.344 4.17 14.498-.971 1.754-2.416 3.199-4.17 4.17l-41.493 23.52c-1.621.942-3.46 1.438-5.334 1.442z"
          fill="#fdca89"/>
    <path d="m43.253 274.828c.939.008 1.859.266 2.667.746l41.494 23.732c2.605 1.371 3.607 4.596 2.236 7.203-.502.955-1.283 1.734-2.236 2.236l-41.494 23.735c-.808.479-1.728.736-2.667.746-2.945 0-5.333-2.387-5.333-5.332v-47.469c0-2.945 2.388-5.332 5.333-5.332m0-10.667c-8.836 0-16 7.164-16 16v47.469c-.099 8.836 6.983 16.078 15.819 16.178 2.912.033 5.777-.73 8.288-2.205l41.493-23.734c7.717-4.305 10.482-14.051 6.178-21.766-1.445-2.594-3.586-4.734-6.178-6.18l-41.493-23.735c-2.418-1.391-5.157-2.127-7.947-2.133z"
          fill="#5c2d51"/>
</svg>