<?xml version="1.0" encoding="utf-8"?>
<!-- Generator: Adobe Illustrator 16.0.0, SVG Export Plug-In . SVG Version: 6.00 Build 0)  -->
<!DOCTYPE svg PUBLIC "-//W3C//DTD SVG 1.1//EN" "http://www.w3.org/Graphics/SVG/1.1/DTD/svg11.dtd">
<svg version="1.1" id="Layer_1" xmlns="http://www.w3.org/2000/svg" xmlns:xlink="http://www.w3.org/1999/xlink" x="0px" y="0px"
	 width="256px" height="256px" viewBox="0 0 256 256" enable-background="new 0 0 256 256" xml:space="preserve">
<g>
	<g>
		<linearGradient id="SVGID_1_" gradientUnits="userSpaceOnUse" x1="132.5938" y1="89.5688" x2="72.5123" y2="133.3239">
			<stop  offset="0" style="stop-color:#DA1C5C"/>
			<stop  offset="1" style="stop-color:#9E1F63"/>
		</linearGradient>
		<path fill="url(#SVGID_1_)" d="M236.022,93.398L116.867,24.607L84.051,5.658c-12.506-7.219-27.442-7.219-39.949,0
			C31.59,12.883,24.125,25.819,24.125,40.263v175.475c0,14.444,7.465,27.38,19.978,34.604c6.253,3.606,13.112,5.413,19.977,5.413
			c6.859,0,13.719-1.807,19.972-5.413l26.265-15.165l36.165-20.88l89.541-51.695C248.535,155.377,256,142.441,256,127.998
			C256,113.56,248.535,100.624,236.022,93.398z M220.018,134.88l-95.771,55.29l-12.758,7.368L68.046,222.62
			c-3.583,2.068-6.745,0.687-7.939,0c-1.194-0.691-3.972-2.743-3.972-6.882V40.263c0-4.144,2.778-6.19,3.972-6.882
			c0.726-0.417,2.178-1.092,4.013-1.092c1.183,0,2.521,0.28,3.927,1.092l47.695,27.534l104.276,60.207
			c3.584,2.069,3.973,5.499,3.973,6.876C223.99,129.381,223.602,132.811,220.018,134.88z"/>
	</g>
	<linearGradient id="SVGID_2_" gradientUnits="userSpaceOnUse" x1="-9.7256" y1="144.7676" x2="119.6209" y2="207.3987">
		<stop  offset="0" style="stop-color:#EE4168"/>
		<stop  offset="1" style="stop-color:#9E1F63"/>
	</linearGradient>
	<path fill="url(#SVGID_2_)" d="M146.481,214.298l-62.43,36.045c-6.253,3.606-13.113,5.413-19.972,5.413
		c-6.865,0-13.724-1.807-19.977-5.413c-12.512-7.225-19.978-20.16-19.978-34.604V81.526l32.01,34.736v99.476
		c0,4.139,2.778,6.19,3.972,6.882c1.195,0.687,4.356,2.068,7.939,0l56.2-32.45L146.481,214.298z"/>
	<linearGradient id="SVGID_3_" gradientUnits="userSpaceOnUse" x1="188.5361" y1="69.229" x2="148.5269" y2="247.2404">
		<stop  offset="0" style="stop-color:#DA1C5C"/>
		<stop  offset="1" style="stop-color:#9E1F63"/>
	</linearGradient>
	<path fill="url(#SVGID_3_)" d="M256,127.998c0,14.444-7.465,27.379-19.978,34.605l-89.541,51.695l-36.165,20.88l1.172-37.64
		l12.758-7.368l95.771-55.29c3.584-2.069,3.973-5.499,3.973-6.882c0-1.377-0.389-4.807-3.973-6.876L115.741,60.915l1.125-36.308
		l119.156,68.792C248.535,100.624,256,113.56,256,127.998z"/>
</g>
</svg>
