<svg enable-background="new 0 0 256 256" height="256" viewBox="0 0 256 256" width="256" xmlns="http://www.w3.org/2000/svg"><path d="m201.38267 101.53865-91.12152-52.607058-25.095625-14.491011c-9.56381-5.52064-20.98593-5.52064-30.550499 0-9.568396 5.525229-15.277161 15.417873-15.277161 26.463741v134.193078c0 11.0451 5.708765 20.93851 15.277925 26.46298 4.781904 2.75764 10.027235 4.13952 15.277165 4.13952 5.24533 0 10.49143-1.38188 15.27333-4.13952l20.085835-11.59725 27.65749-15.96772 68.47536-39.5331c9.56839-5.52523 15.27716-15.41711 15.27716-26.46298-.00076-11.04204-5.70953-20.93469-15.27946-26.46068zm-12.23809 31.72284-73.23966 42.28234-9.75652 5.63458-33.222495 19.18115c-2.74006 1.58071-5.15816.52537-6.07126 0-.91309-.52844-3.03753-2.09768-3.03753-5.26292v-134.192318c0-3.169072 2.12444-4.73296 3.03753-5.262923.5552-.318896 1.6656-.835094 3.0689-.835094.90468 0 1.9279.214127 3.00312.835094l36.474155 21.056279 79.74301 46.042552c2.74082 1.58224 3.03906 4.20529 3.03906 5.25834-.00076 1.05763-.29748 3.68068-3.03831 5.26292z" stroke-width=".764737"/></svg>