<svg enable-background="new 0 0 256 256" height="256" viewBox="0 0 256 256" width="256" xmlns="http://www.w3.org/2000/svg"><path d="m236.021 93.398-119.154-68.791-32.816-18.949c-12.506-7.219-27.442-7.219-39.949 0-12.512 7.225-19.977 20.161-19.977 34.605v175.476c0 14.443 7.465 27.38 19.978 34.604 6.253 3.606 13.112 5.413 19.977 5.413 6.859 0 13.719-1.807 19.972-5.413l26.265-15.165 36.166-20.88 89.541-51.695c12.512-7.225 19.977-20.16 19.977-34.604-.001-14.439-7.466-27.375-19.98-34.601zm-16.003 41.482-95.771 55.29-12.758 7.368-43.443 25.082c-3.583 2.067-6.745.687-7.939 0-1.194-.691-3.972-2.743-3.972-6.882v-175.475c0-4.144 2.778-6.189 3.972-6.882.726-.417 2.178-1.092 4.013-1.092 1.183 0 2.521.28 3.927 1.092l47.695 27.534 104.275 60.207c3.584 2.069 3.974 5.499 3.974 6.876-.001 1.383-.389 4.813-3.973 6.882z"/></svg>